# xmcd
#
# Track frame offsets:
#	150
#	10315
#	22787
#	35707
#	47278
#	62108
#	71179
#	81900
#	95177
#	109318
#	121235
#	132013
#	143264
#	154500
#	163204
#	173619
#
# Disc length: 2470 seconds
#
# Revision: 1
# Processed by: cddbd v1.5.1PL0 Copyright (c) Steve Scherf et al.
# Submitted via: audiograbber 1.83.01
#
DISCID=cd09a410
DTITLE=Johnny Horton - The Very Best Of
DYEAR=2004
DGENRE=
TTITLE0=Honky Tonk Man
TTITLE1=All For The Love Of A Girl
TTITLE2=North To Alaska
TTITLE3=The Battle Of New Orleans
TTITLE4=Sink The Bismarck
TTITLE5=I'm A One Woman Man
TTITLE6=Johnny Reb
TTITLE7=Whispering Pines
TTITLE8=The Mansion You Stole
TTITLE9=When It's Springtime In Alaska
TTITLE10=Take Me Like I Am
TTITLE11=Jim Bridger
TTITLE12=Cherokee Boogie
TTITLE13=All Grown Up
TTITLE14=I'm Ready If You're Willing
TTITLE15=Lost Highway
EXTD=
EXTT0=
EXTT1=
EXTT2=
EXTT3=
EXTT4=
EXTT5=
EXTT6=
EXTT7=
EXTT8=
EXTT9=
EXTT10=
EXTT11=
EXTT12=
EXTT13=
EXTT14=
EXTT15=
PLAYORDER=
